<svg width="22" height="26" viewBox="0 0 22 26" fill="none" xmlns="http://www.w3.org/2000/svg">
<path fill-rule="evenodd" clip-rule="evenodd" d="M11.0593 25.9944C11.4737 25.9944 11.871 25.8298 12.164 25.5368C12.457 25.2438 12.6216 24.8464 12.6216 24.4321V6.33096L19.3271 13.0396C19.4724 13.1848 19.6448 13.3001 19.8346 13.3787C20.0244 13.4573 20.2278 13.4978 20.4333 13.4978C20.6387 13.4978 20.8421 13.4573 21.0319 13.3787C21.2217 13.3001 21.3941 13.1848 21.5394 13.0396C21.6846 12.8943 21.7999 12.7219 21.8785 12.5321C21.9571 12.3423 21.9976 12.1389 21.9976 11.9335C21.9976 11.728 21.9571 11.5246 21.8785 11.3348C21.7999 11.145 21.6846 10.9726 21.5394 10.8273L12.1654 1.45338C12.0203 1.30788 11.8479 1.19245 11.6581 1.11369C11.4683 1.03493 11.2648 0.994385 11.0593 0.994385C10.8538 0.994385 10.6503 1.03493 10.4605 1.11369C10.2707 1.19245 10.0983 1.30788 9.95317 1.45338L0.579221 10.8273C0.285858 11.1207 0.121048 11.5186 0.121048 11.9335C0.121048 12.3483 0.285858 12.7462 0.579221 13.0396C0.872584 13.3329 1.27047 13.4978 1.68535 13.4978C2.10023 13.4978 2.49811 13.3329 2.79147 13.0396L9.49698 6.33096V24.4321C9.49698 24.8464 9.66158 25.2438 9.95457 25.5368C10.2476 25.8298 10.6449 25.9944 11.0593 25.9944Z" fill="black"/>
</svg>
