<svg width="25" height="25" viewBox="0 0 25 25" fill="none" xmlns="http://www.w3.org/2000/svg">
<path fill-rule="evenodd" clip-rule="evenodd" d="M7.25931 2.57181C7.33188 2.49905 7.41809 2.44133 7.513 2.40194C7.60792 2.36256 7.70967 2.34229 7.81243 2.34229C7.91519 2.34229 8.01694 2.36256 8.11186 2.40194C8.20677 2.44133 8.29299 2.49905 8.36556 2.57181L17.7406 11.9468C17.8133 12.0194 17.871 12.1056 17.9104 12.2005C17.9498 12.2954 17.9701 12.3972 17.9701 12.4999C17.9701 12.6027 17.9498 12.7044 17.9104 12.7994C17.871 12.8943 17.8133 12.9805 17.7406 13.0531L8.36556 22.4281C8.21886 22.5748 8.01989 22.6572 7.81243 22.6572C7.60497 22.6572 7.406 22.5748 7.25931 22.4281C7.11261 22.2814 7.03019 22.0824 7.03019 21.8749C7.03019 21.6675 7.11261 21.4685 7.25931 21.3218L16.0827 12.4999L7.25931 3.67806C7.18655 3.60549 7.12883 3.51927 7.08944 3.42436C7.05006 3.32945 7.02979 3.22769 7.02979 3.12493C7.02979 3.02217 7.05006 2.92042 7.08944 2.8255C7.12883 2.73059 7.18655 2.64438 7.25931 2.57181Z" fill="black"/>
</svg>
