<svg viewBox="0 0 40 40" fill="none" xmlns="http://www.w3.org/2000/svg">
<path d="M6 9.57143H6.84692L6.98635 8.73607C7.47549 5.80565 9.54794 3.85714 11.7647 3.85714C12.5624 3.85714 13.3998 4.13912 14.2107 4.68919L15.2158 5.37095L15.692 4.25367C16.5532 2.23284 18.2226 1 20 1C21.7772 1 23.4467 2.23357 24.3081 4.2538L24.8013 5.41073L25.8173 4.66945C26.5352 4.1457 27.3609 3.85714 28.2353 3.85714C30.4394 3.85714 32.4622 5.79147 33.0171 8.75545L33.1698 9.57143H34H34.1176C35.9881 9.57143 37.8235 11.4958 37.8235 14.2857C37.8235 14.9528 37.7156 15.5786 37.5223 16.1429H2.47717C2.28479 15.5773 2.17647 14.9514 2.17647 14.2857C2.17647 11.4953 4.00868 9.57143 5.88235 9.57143H6ZM31.3131 35.482L30.5235 35.7972L30.7075 36.6272C30.744 36.7919 30.7647 36.9693 30.7647 37.1429C30.7647 38.3613 29.9881 39 29.4118 39H10.5882C10.0119 39 9.23529 38.3613 9.23529 37.1429C9.23529 36.9693 9.25595 36.7919 9.29247 36.6272L9.47649 35.7972L8.68694 35.482C4.30949 33.7344 1 28.6315 1 22.4464C1 21.4604 1.62788 21 2.01691 21H37.9853C38.3704 21 39 21.4601 39 22.4464C39 28.6315 35.6905 33.7344 31.3131 35.482Z" stroke="black" stroke-width="2"/>
</svg>
