<svg viewBox="0 0 25 25" fill="none" xmlns="http://www.w3.org/2000/svg">
<path fill-rule="evenodd" clip-rule="evenodd" d="M17.7406 2.57181C17.8133 2.64438 17.871 2.73059 17.9104 2.8255C17.9498 2.92042 17.9701 3.02217 17.9701 3.12493C17.9701 3.22769 17.9498 3.32945 17.9104 3.42436C17.871 3.51927 17.8133 3.60549 17.7406 3.67806L8.91712 12.4999L17.7406 21.3218C17.8873 21.4685 17.9697 21.6675 17.9697 21.8749C17.9697 22.0824 17.8873 22.2814 17.7406 22.4281C17.5939 22.5748 17.3949 22.6572 17.1874 22.6572C16.98 22.6572 16.781 22.5748 16.6343 22.4281L7.25931 13.0531C7.18655 12.9805 7.12883 12.8943 7.08944 12.7994C7.05006 12.7044 7.02979 12.6027 7.02979 12.4999C7.02979 12.3972 7.05006 12.2954 7.08944 12.2005C7.12883 12.1056 7.18655 12.0194 7.25931 11.9468L16.6343 2.57181C16.7069 2.49905 16.7931 2.44133 16.888 2.40194C16.9829 2.36256 17.0847 2.34229 17.1874 2.34229C17.2902 2.34229 17.3919 2.36256 17.4869 2.40194C17.5818 2.44133 17.668 2.49905 17.7406 2.57181V2.57181Z" fill="black"/>
</svg>
