<svg width="20" height="20" viewBox="0 0 20 20" fill="none" xmlns="http://www.w3.org/2000/svg">
<path d="M20 5.95698C20 11.6661 17.2637 16.4602 13.1523 18.0136C12.3695 18.368 11.5183 18.5698 10.6254 18.5698C8.0902 18.5698 5.73472 16.9401 4.54331 14.3529C2.42885 16.5816 1.85932 19.1291 1.84955 19.1782C1.74682 19.6697 1.36205 20 0.938222 20C0.866191 20 0.792636 19.9902 0.719394 19.9707C0.215876 19.8324 -0.0946714 19.2529 0.0260321 18.678C0.400955 16.9148 3.56003 8.57203 13.1237 8.57203C13.4687 8.57275 13.75 8.25136 13.75 7.85855C13.75 7.46574 13.4687 7.14435 13.125 7.14435C8.92965 7.14435 5.89839 8.68881 3.76128 10.519C3.76883 10.036 3.80979 9.54407 3.89936 9.04368C4.42554 6.10607 6.47906 3.7318 9.03219 3.0533C10.1388 2.76039 11.2072 2.7849 12.1935 3.05306C14.381 3.64764 16.8107 2.72221 18.0256 0.31945C18.2468 -0.119249 18.8076 -0.105322 18.9889 0.356419C19.6367 2.0003 20 4.01524 20 5.95698Z" fill="#0C9B58"/>
</svg>
