<svg viewBox="0 0 40 40" fill="none" xmlns="http://www.w3.org/2000/svg">
<path d="M21.0892 0.41967C20.9463 0.28664 20.7765 0.181096 20.5896 0.109082C20.4027 0.0370685 20.2024 0 20 0C19.7976 0 19.5973 0.0370685 19.4104 0.109082C19.2235 0.181096 19.0537 0.28664 18.9108 0.41967L0.449233 17.5614C0.306458 17.6943 0.193295 17.8521 0.116213 18.0256C0.0391306 18.1991 -0.000358614 18.3851 2.45383e-06 18.5728V38.5715C2.45383e-06 38.9504 0.16209 39.3137 0.450607 39.5816C0.739125 39.8495 1.13044 40 1.53846 40H15.3846C15.7926 40 16.184 39.8495 16.4725 39.5816C16.761 39.3137 16.9231 38.9504 16.9231 38.5715V27.1437H23.0769V38.5715C23.0769 38.9504 23.239 39.3137 23.5275 39.5816C23.816 39.8495 24.2074 40 24.6154 40H38.4615C38.8696 40 39.2609 39.8495 39.5494 39.5816C39.8379 39.3137 40 38.9504 40 38.5715V18.5728C40.0004 18.3851 39.9609 18.1991 39.8838 18.0256C39.8067 17.8521 39.6935 17.6943 39.5508 17.5614L35.3846 13.696V4.28799C35.3846 3.90914 35.2225 3.5458 34.934 3.27791C34.6455 3.01001 34.2542 2.85951 33.8462 2.85951H30.7692C30.3612 2.85951 29.9699 3.01001 29.6814 3.27791C29.3929 3.5458 29.2308 3.90914 29.2308 4.28799V7.98204L21.0892 0.41967ZM3.07693 37.143V19.1642L20 3.45091L36.9231 19.1642V37.143H26.1538V25.7152C26.1538 25.3363 25.9918 24.973 25.7032 24.7051C25.4147 24.4372 25.0234 24.2867 24.6154 24.2867H15.3846C14.9766 24.2867 14.5853 24.4372 14.2968 24.7051C14.0082 24.973 13.8462 25.3363 13.8462 25.7152V37.143H3.07693Z" fill="black"/>
</svg>
