<svg viewBox="0 0 132 19" fill="none" xmlns="http://www.w3.org/2000/svg">
<mask id="mask0_272_15" style="mask-type:alpha" maskUnits="userSpaceOnUse" x="0" y="0" width="132" height="19">
<rect width="132" height="19" fill="white"/>
</mask>
<g mask="url(#mask0_272_15)">
<path d="M36.0057 1.54545V19H33.5852L24.7131 6.19886H24.5511V19H21.9176V1.54545H24.3551L33.2358 14.3636H33.3977V1.54545H36.0057ZM47.9354 13.571V5.90909H50.4922V19H47.9865V16.733H47.8501C47.549 17.4318 47.0661 18.0142 46.4013 18.4801C45.7422 18.9403 44.9212 19.1705 43.9382 19.1705C43.0973 19.1705 42.353 18.9858 41.7053 18.6165C41.0632 18.2415 40.5575 17.6875 40.1882 16.9545C39.8246 16.2216 39.6428 15.3153 39.6428 14.2358V5.90909H42.1911V13.929C42.1911 14.821 42.4382 15.5312 42.9325 16.0597C43.4268 16.5881 44.0689 16.8523 44.8587 16.8523C45.3359 16.8523 45.8104 16.733 46.282 16.4943C46.7592 16.2557 47.1541 15.8949 47.4666 15.4119C47.7848 14.929 47.9411 14.3153 47.9354 13.571ZM60.027 5.90909V7.95455H52.8764V5.90909H60.027ZM54.794 2.77273H57.3423V15.1562C57.3423 15.6506 57.4162 16.0227 57.5639 16.2727C57.7116 16.517 57.902 16.6847 58.1349 16.7756C58.3736 16.8608 58.6321 16.9034 58.9105 16.9034C59.1151 16.9034 59.294 16.8892 59.4474 16.8608C59.6009 16.8324 59.7202 16.8097 59.8054 16.7926L60.2656 18.8977C60.1179 18.9545 59.9077 19.0114 59.6349 19.0682C59.3622 19.1307 59.0213 19.1648 58.6122 19.1705C57.9418 19.1818 57.3168 19.0625 56.7372 18.8125C56.1577 18.5625 55.6889 18.1761 55.331 17.6534C54.973 17.1307 54.794 16.4744 54.794 15.6847V2.77273ZM62.8459 19V5.90909H65.3089V7.98864H65.4453C65.6839 7.28409 66.1044 6.73011 66.7067 6.3267C67.3146 5.91761 68.0021 5.71307 68.7692 5.71307C68.9283 5.71307 69.1158 5.71875 69.3317 5.73011C69.5533 5.74148 69.7266 5.75568 69.8516 5.77273V8.21023C69.7493 8.18182 69.5675 8.15057 69.3061 8.11648C69.0447 8.0767 68.7834 8.05682 68.522 8.05682C67.9197 8.05682 67.3828 8.18466 66.9112 8.44034C66.4453 8.69034 66.076 9.03977 65.8033 9.48864C65.5305 9.93182 65.3942 10.4375 65.3942 11.0057V19H62.8459ZM72.0568 19V5.90909H74.6051V19H72.0568ZM73.3438 3.8892C72.9006 3.8892 72.5199 3.74148 72.2017 3.44602C71.8892 3.14489 71.733 2.78693 71.733 2.37216C71.733 1.9517 71.8892 1.59375 72.2017 1.29829C72.5199 0.997159 72.9006 0.846591 73.3438 0.846591C73.7869 0.846591 74.1648 0.997159 74.4773 1.29829C74.7955 1.59375 74.9545 1.9517 74.9545 2.37216C74.9545 2.78693 74.7955 3.14489 74.4773 3.44602C74.1648 3.74148 73.7869 3.8892 73.3438 3.8892ZM78.2379 19V1.54545H89.0618V3.8125H80.8714V9.13068H88.2862V11.3892H80.8714V19H78.2379ZM96.6491 19.2642C95.4219 19.2642 94.3509 18.983 93.4361 18.4205C92.5213 17.858 91.8111 17.071 91.3054 16.0597C90.7997 15.0483 90.5469 13.8665 90.5469 12.5142C90.5469 11.1562 90.7997 9.96875 91.3054 8.9517C91.8111 7.93466 92.5213 7.14489 93.4361 6.58239C94.3509 6.01989 95.4219 5.73864 96.6491 5.73864C97.8764 5.73864 98.9474 6.01989 99.8622 6.58239C100.777 7.14489 101.487 7.93466 101.993 8.9517C102.499 9.96875 102.751 11.1562 102.751 12.5142C102.751 13.8665 102.499 15.0483 101.993 16.0597C101.487 17.071 100.777 17.858 99.8622 18.4205C98.9474 18.983 97.8764 19.2642 96.6491 19.2642ZM96.6577 17.125C97.4531 17.125 98.1122 16.9148 98.6349 16.4943C99.1577 16.0739 99.544 15.5142 99.794 14.8153C100.05 14.1165 100.178 13.3466 100.178 12.5057C100.178 11.6705 100.05 10.9034 99.794 10.2045C99.544 9.5 99.1577 8.93466 98.6349 8.50852C98.1122 8.08239 97.4531 7.86932 96.6577 7.86932C95.8565 7.86932 95.1918 8.08239 94.6634 8.50852C94.1406 8.93466 93.7514 9.5 93.4957 10.2045C93.2457 10.9034 93.1207 11.6705 93.1207 12.5057C93.1207 13.3466 93.2457 14.1165 93.4957 14.8153C93.7514 15.5142 94.1406 16.0739 94.6634 16.4943C95.1918 16.9148 95.8565 17.125 96.6577 17.125ZM111.11 19.2642C109.883 19.2642 108.812 18.983 107.897 18.4205C106.982 17.858 106.272 17.071 105.766 16.0597C105.261 15.0483 105.008 13.8665 105.008 12.5142C105.008 11.1562 105.261 9.96875 105.766 8.9517C106.272 7.93466 106.982 7.14489 107.897 6.58239C108.812 6.01989 109.883 5.73864 111.11 5.73864C112.337 5.73864 113.408 6.01989 114.323 6.58239C115.238 7.14489 115.948 7.93466 116.454 8.9517C116.96 9.96875 117.212 11.1562 117.212 12.5142C117.212 13.8665 116.96 15.0483 116.454 16.0597C115.948 17.071 115.238 17.858 114.323 18.4205C113.408 18.983 112.337 19.2642 111.11 19.2642ZM111.119 17.125C111.914 17.125 112.573 16.9148 113.096 16.4943C113.619 16.0739 114.005 15.5142 114.255 14.8153C114.511 14.1165 114.638 13.3466 114.638 12.5057C114.638 11.6705 114.511 10.9034 114.255 10.2045C114.005 9.5 113.619 8.93466 113.096 8.50852C112.573 8.08239 111.914 7.86932 111.119 7.86932C110.317 7.86932 109.653 8.08239 109.124 8.50852C108.602 8.93466 108.212 9.5 107.957 10.2045C107.707 10.9034 107.582 11.6705 107.582 12.5057C107.582 13.3466 107.707 14.1165 107.957 14.8153C108.212 15.5142 108.602 16.0739 109.124 16.4943C109.653 16.9148 110.317 17.125 111.119 17.125ZM124.957 19.2557C123.901 19.2557 122.957 18.9858 122.128 18.446C121.304 17.9006 120.656 17.125 120.185 16.1193C119.719 15.108 119.486 13.8949 119.486 12.4801C119.486 11.0653 119.722 9.85511 120.193 8.84943C120.67 7.84375 121.324 7.07386 122.153 6.53977C122.983 6.00568 123.923 5.73864 124.974 5.73864C125.787 5.73864 126.44 5.875 126.935 6.14773C127.435 6.41477 127.821 6.72727 128.094 7.08523C128.372 7.44318 128.588 7.75852 128.741 8.03125H128.895V1.54545H131.443V19H128.955V16.9631H128.741C128.588 17.2415 128.366 17.5597 128.077 17.9176C127.793 18.2756 127.401 18.5881 126.901 18.8551C126.401 19.1222 125.753 19.2557 124.957 19.2557ZM125.52 17.0824C126.253 17.0824 126.872 16.8892 127.378 16.5028C127.889 16.1108 128.276 15.5682 128.537 14.875C128.804 14.1818 128.938 13.375 128.938 12.4545C128.938 11.5455 128.807 10.75 128.545 10.0682C128.284 9.38636 127.901 8.85511 127.395 8.47443C126.889 8.09375 126.264 7.90341 125.52 7.90341C124.753 7.90341 124.114 8.10227 123.602 8.5C123.091 8.89773 122.705 9.44034 122.443 10.1278C122.188 10.8153 122.06 11.5909 122.06 12.4545C122.06 13.3295 122.19 14.1165 122.452 14.8153C122.713 15.5142 123.099 16.0682 123.611 16.4773C124.128 16.8807 124.764 17.0824 125.52 17.0824Z" fill="currentColor"/>
<path d="M18.25 6.43575C18.25 11.6454 15.7531 16.02 12.0015 17.4374C11.2872 17.7608 10.5105 17.945 9.69564 17.945C7.38231 17.945 5.23293 16.4578 4.14577 14.097C2.21633 16.1308 1.69663 18.4553 1.68772 18.5001C1.59397 18.9486 1.24287 19.25 0.856128 19.25C0.790399 19.25 0.72328 19.2411 0.656447 19.2233C0.196987 19.0971 -0.0863877 18.5683 0.0237543 18.0437C0.365872 16.4348 3.24852 8.82198 11.9754 8.82198C12.2902 8.82264 12.5469 8.52937 12.5469 8.17093C12.5469 7.81249 12.2902 7.51922 11.9765 7.51922C8.14831 7.51922 5.38228 8.92854 3.43217 10.5985C3.43906 10.1578 3.47644 9.70896 3.55817 9.25236C4.0383 6.57179 5.91214 4.40526 8.24188 3.78614C9.25169 3.51886 10.2266 3.54122 11.1266 3.78592C13.1227 4.32847 15.3398 3.48401 16.4483 1.2915C16.6502 0.891185 17.1619 0.903894 17.3273 1.32523C17.9185 2.82527 18.25 4.66391 18.25 6.43575Z" fill="currentColor"/>
</g>
</svg>
