<svg viewBox="0 0 54 40" fill="none" xmlns="http://www.w3.org/2000/svg">
<path d="M39 9.9964V10.9964H40H43.3991C43.9985 10.9969 44.59 11.1321 45.1301 11.3919C45.6702 11.6517 46.1449 12.0294 46.5192 12.4972L46.5194 12.4975L51.4561 18.6619C52.0243 19.3714 52.3337 20.2532 52.3333 21.162V21.1624V28.3231C52.3333 29.3834 51.912 30.4003 51.1619 31.1502C50.4118 31.9 49.3943 32.3213 48.3333 32.3213H46.6667H45.6667V33.3213C45.6667 34.8235 45.0697 36.2642 44.0071 37.3265C42.9444 38.3888 41.503 38.9856 40 38.9856C38.497 38.9856 37.0556 38.3888 35.9929 37.3265C34.9303 36.2642 34.3333 34.8235 34.3333 33.3213V32.3213H33.3333H16.6667H15.6645L15.6667 33.3235C15.6683 34.0785 15.5189 34.8261 15.2273 35.5226C14.9357 36.219 14.5078 36.8501 13.9686 37.3789C13.4295 37.9077 12.79 38.3234 12.0878 38.6016C11.3855 38.8797 10.6348 39.0148 9.87956 38.9987C9.12436 38.9827 8.37999 38.8159 7.69023 38.5081C7.00047 38.2003 6.37925 37.7578 5.86306 37.2067C5.34688 36.6555 4.94616 36.0067 4.68444 35.2985C4.42272 34.5903 4.30527 33.837 4.339 33.0828L4.37217 32.3412L3.67189 32.0948C2.89064 31.8199 2.21405 31.3094 1.73549 30.6339C1.25692 29.9583 0.999955 29.1509 1 28.3232V28.3231V4.9982C1 3.93793 1.42134 2.92101 2.17145 2.17117C2.92156 1.42133 3.93902 1 5 1H35C36.061 1 37.0784 1.42133 37.8286 2.17117C38.5787 2.92101 39 3.93793 39 4.9982V9.9964ZM3.90145 30.7538L4.70619 31.1176L5.16665 30.364C5.67884 29.5257 6.40042 28.8351 7.26053 28.36C8.12063 27.8849 9.08964 27.6416 10.0723 27.6542C11.055 27.6668 12.0174 27.9347 12.8651 28.4317C13.7127 28.9286 14.4164 29.6375 14.9069 30.4886L15.1955 30.9892H15.7733H34.2267H34.803L35.0919 30.4905C35.5907 29.6296 36.3064 28.9142 37.1677 28.4155L37.6667 28.1266V27.5501V4.9982C37.6667 4.29101 37.3856 3.61284 36.8855 3.11288C36.3854 2.61294 35.7071 2.33213 35 2.33213H5C4.29287 2.33213 3.61463 2.61294 3.11451 3.11288C2.61437 3.61284 2.33333 4.291 2.33333 4.9982L2.33333 28.3223L3.33333 28.3231H2.33333V28.3226C2.33298 28.8358 2.48074 29.3381 2.75886 29.7693C3.03704 30.2006 3.43379 30.5425 3.90145 30.7538ZM3.55958 29.1626C3.52721 29.2128 3.49541 29.2634 3.46417 29.3144C3.46279 29.3167 3.4614 29.3189 3.46002 29.3212L3.96159 29.6277C3.82054 29.5154 3.69794 29.3803 3.59923 29.2273C3.58551 29.206 3.57229 29.1845 3.55958 29.1626ZM39 26.6571V27.6571L40 27.6571C40.9947 27.6571 41.9719 27.9189 42.8334 28.4161C43.6948 28.9132 44.4101 29.6283 44.9074 30.4893L45.1961 30.9892H45.7733H48.3333C49.0405 30.9892 49.7187 30.7084 50.2188 30.2085C50.719 29.7085 51 29.0303 51 28.3231V21.1591V21.1573C50.9989 20.5522 50.792 19.9654 50.4132 19.4935L45.4813 13.3309C45.2319 13.0186 44.9155 12.7664 44.5555 12.593L44.1213 13.4938L44.5554 12.5929C44.1954 12.4195 43.801 12.3291 43.4014 12.3285H43.4H40H39V13.3285V26.6571ZM10 28.9892C8.85084 28.9892 7.74868 29.4455 6.936 30.2579C6.1233 31.0703 5.66667 32.1723 5.66667 33.3213C5.66667 34.4704 6.1233 35.5723 6.936 36.3848C7.74868 37.1971 8.85085 37.6535 10 37.6535C11.1492 37.6535 12.2513 37.1971 13.064 36.3848C13.8767 35.5723 14.3333 34.4704 14.3333 33.3213C14.3333 32.1723 13.8767 31.0703 13.064 30.2579C12.2513 29.4455 11.1492 28.9892 10 28.9892ZM40 28.9892C38.8508 28.9892 37.7487 29.4455 36.936 30.2579C36.1233 31.0703 35.6667 32.1723 35.6667 33.3213C35.6667 34.4704 36.1233 35.5723 36.936 36.3848C37.7487 37.1971 38.8508 37.6535 40 37.6535C41.1492 37.6535 42.2513 37.1971 43.064 36.3848C43.8767 35.5723 44.3333 34.4704 44.3333 33.3213C44.3333 32.1723 43.8767 31.0703 43.064 30.2579C42.2513 29.4455 41.1492 28.9892 40 28.9892Z" stroke="currentColor" stroke-width="2"/>
</svg>
