<svg viewBox="0 0 40 40" fill="none" xmlns="http://www.w3.org/2000/svg">
<path d="M3.34531 38.5C3.33824 38.4998 3.32167 38.4991 3.29697 38.4973C3.24571 38.4936 3.16267 38.4856 3.0591 38.4683C2.84484 38.4326 2.58208 38.364 2.33749 38.2417C2.09877 38.1223 1.90567 37.9668 1.76891 37.7617C1.6384 37.5659 1.5 37.2375 1.5 36.6667C1.5 35.3851 2.18415 32.4372 4.81066 29.8107C7.39321 27.2281 11.983 24.8333 20 24.8333C28.017 24.8333 32.6068 27.2281 35.1893 29.8107C37.8158 32.4372 38.5 35.3851 38.5 36.6667C38.5 37.2375 38.3616 37.5659 38.2311 37.7617C38.0943 37.9668 37.9012 38.1223 37.6625 38.2417C37.4179 38.364 37.1552 38.4326 36.9409 38.4683C36.8373 38.4856 36.7543 38.4936 36.703 38.4973C36.6783 38.4991 36.6618 38.4998 36.6547 38.5H3.34531ZM26.0104 16.0104C24.4163 17.6045 22.2543 18.5 20 18.5C17.7457 18.5 15.5837 17.6045 13.9896 16.0104C12.3955 14.4163 11.5 12.2543 11.5 10C11.5 7.74566 12.3955 5.58365 13.9896 3.98959C15.5837 2.39553 17.7457 1.5 20 1.5C22.2543 1.5 24.4163 2.39553 26.0104 3.98959C27.6045 5.58365 28.5 7.74566 28.5 10C28.5 12.2543 27.6045 14.4163 26.0104 16.0104Z" stroke="currentColor" stroke-width="3"/>
</svg>
